<svg xmlns="http://www.w3.org/2000/svg" viewBox="0 0 100 100" role="img" aria-label="Florida Day Hospital">
  <defs>
    <linearGradient id="fdhBlue" x1="0" y1="0" x2="0" y2="1">
      <stop offset="0" stop-color="#2E6FB8"/>
      <stop offset="1" stop-color="#164A85"/>
    </linearGradient>
    <linearGradient id="fdhTeal" x1="0" y1="0" x2="1" y2="1">
      <stop offset="0" stop-color="#2BB6A3"/>
      <stop offset="1" stop-color="#0F8F7E"/>
    </linearGradient>
    <linearGradient id="fdhRed" x1="1" y1="0" x2="0" y2="1">
      <stop offset="0" stop-color="#E5453C"/>
      <stop offset="1" stop-color="#C42A2E"/>
    </linearGradient>
  </defs>

  <rect x="37" y="8" width="26" height="84" rx="13" fill="url(#fdhBlue)"/>
  <path d="M21 37h29v26H21a13 13 0 0 1-13-13v0a13 13 0 0 1 13-13z" fill="url(#fdhTeal)"/>
  <path d="M50 37h29a13 13 0 0 1 13 13v0a13 13 0 0 1-13 13H50V37z" fill="url(#fdhRed)"/>

  <rect x="44" y="30" width="12" height="40" rx="6" fill="#FFFFFF"/>
  <rect x="30" y="44" width="40" height="12" rx="6" fill="#FFFFFF"/>
</svg>
